# xmcd CD database file
#
# Track frame offsets:
#	150
#	21316
#	36143
#	53092
#	69141
#	94543
#	113866
#	129170
#	143602
#	157348
#
# Disc length: 2451 seconds
#
# Revision: 0
# Processed by: cddbd v1.4PL0 Copyright (c) Steve Scherf et al.
# Submitted via: CDex 1.50
#
DISCID=7c09910a
DTITLE=Pelle Lindberg and Bluesblasters - Måndag igen!
DYEAR=2002
DGENRE=Blues
TTITLE0=Ska aldrig bli nykter igen!
TTITLE1=Måndag igen!
TTITLE2=Ge fan i all sprit
TTITLE3=Jag har dresserat min hund
TTITLE4=Jag har vatt långt nere
TTITLE5=Flabbar runt
TTITLE6=Jag blir så lack po daj
TTITLE7=Du sär att kriget e slut nu
TTITLE8=Få ud den nu
TTITLE9=Du e som guld för maj
EXTD=YEAR: 2002
EXTT0=
EXTT1=
EXTT2=
EXTT3=
EXTT4=
EXTT5=
EXTT6=
EXTT7=
EXTT8=
EXTT9=
PLAYORDER=
